<svg width="40" height="40" viewBox="0 0 40 40" fill="none" xmlns="http://www.w3.org/2000/svg">
<g filter="url(#filter0_d)">
<rect x="4" width="32" height="32" rx="10" fill="#FF8484"/>
</g>
<g clip-path="url(#clip0)" filter="url(#filter1_d)">
<path d="M22.207 13.7969C22 13.7969 21.8322 13.9646 21.8322 14.1716V21.2535C21.8322 21.4604 22 21.6283 22.207 21.6283C22.4139 21.6283 22.5817 21.4604 22.5817 21.2535V14.1716C22.5817 13.9646 22.4139 13.7969 22.207 13.7969Z" fill="white"/>
<path d="M17.7854 13.7969C17.5785 13.7969 17.4107 13.9646 17.4107 14.1716V21.2535C17.4107 21.4604 17.5785 21.6283 17.7854 21.6283C17.9924 21.6283 18.1602 21.4604 18.1602 21.2535V14.1716C18.1602 13.9646 17.9924 13.7969 17.7854 13.7969Z" fill="white"/>
<path d="M14.5629 12.7634V21.9953C14.5629 22.541 14.763 23.0534 15.1126 23.4211C15.4605 23.7898 15.9447 23.9991 16.4514 24H23.541C24.0478 23.9991 24.532 23.7898 24.8798 23.4211C25.2293 23.0534 25.4294 22.541 25.4294 21.9953V12.7634C26.1242 12.5789 26.5745 11.9077 26.4815 11.1947C26.3884 10.4819 25.7811 9.94867 25.0622 9.94852H23.1437V9.48014C23.1459 9.08626 22.9902 8.70804 22.7113 8.42979C22.4325 8.15169 22.0537 7.99683 21.6598 8.00005H18.3325C17.9387 7.99683 17.5599 8.15169 17.281 8.42979C17.0022 8.70804 16.8465 9.08626 16.8487 9.48014V9.94852H14.9302C14.2112 9.94867 13.6039 10.4819 13.5108 11.1947C13.4179 11.9077 13.8681 12.5789 14.5629 12.7634ZM23.541 23.2506H16.4514C15.8107 23.2506 15.3124 22.7002 15.3124 21.9953V12.7963H24.68V21.9953C24.68 22.7002 24.1816 23.2506 23.541 23.2506ZM17.5981 9.48014C17.5956 9.28503 17.6723 9.09724 17.8107 8.9595C17.9491 8.82177 18.1373 8.74609 18.3325 8.74946H21.6598C21.8551 8.74609 22.0433 8.82177 22.1816 8.9595C22.3201 9.09709 22.3968 9.28503 22.3943 9.48014V9.94852H17.5981V9.48014ZM14.9302 10.6979H25.0622C25.4347 10.6979 25.7367 10.9999 25.7367 11.3724C25.7367 11.7449 25.4347 12.0469 25.0622 12.0469H14.9302C14.5577 12.0469 14.2557 11.7449 14.2557 11.3724C14.2557 10.9999 14.5577 10.6979 14.9302 10.6979Z" fill="white"/>
<path d="M19.9962 13.7969C19.7892 13.7969 19.6215 13.9646 19.6215 14.1716V21.2535C19.6215 21.4604 19.7892 21.6283 19.9962 21.6283C20.2032 21.6283 20.3709 21.4604 20.3709 21.2535V14.1716C20.3709 13.9646 20.2032 13.7969 19.9962 13.7969Z" fill="white"/>
</g>
<defs>
<filter id="filter0_d" x="0" y="0" width="40" height="40" filterUnits="userSpaceOnUse" color-interpolation-filters="sRGB">
<feFlood flood-opacity="0" result="BackgroundImageFix"/>
<feColorMatrix in="SourceAlpha" type="matrix" values="0 0 0 0 0 0 0 0 0 0 0 0 0 0 0 0 0 0 127 0" result="hardAlpha"/>
<feOffset dy="4"/>
<feGaussianBlur stdDeviation="2"/>
<feComposite in2="hardAlpha" operator="out"/>
<feColorMatrix type="matrix" values="0 0 0 0 0 0 0 0 0 0 0 0 0 0 0 0 0 0 0.25 0"/>
<feBlend mode="normal" in2="BackgroundImageFix" result="effect1_dropShadow"/>
<feBlend mode="normal" in="SourceGraphic" in2="effect1_dropShadow" result="shape"/>
</filter>
<filter id="filter1_d" x="8" y="8" width="24" height="24" filterUnits="userSpaceOnUse" color-interpolation-filters="sRGB">
<feFlood flood-opacity="0" result="BackgroundImageFix"/>
<feColorMatrix in="SourceAlpha" type="matrix" values="0 0 0 0 0 0 0 0 0 0 0 0 0 0 0 0 0 0 127 0" result="hardAlpha"/>
<feOffset dy="4"/>
<feGaussianBlur stdDeviation="2"/>
<feComposite in2="hardAlpha" operator="out"/>
<feColorMatrix type="matrix" values="0 0 0 0 0 0 0 0 0 0 0 0 0 0 0 0 0 0 0.25 0"/>
<feBlend mode="normal" in2="BackgroundImageFix" result="effect1_dropShadow"/>
<feBlend mode="normal" in="SourceGraphic" in2="effect1_dropShadow" result="shape"/>
</filter>
<clipPath id="clip0">
<rect width="16" height="16" fill="white" transform="translate(12 8)"/>
</clipPath>
</defs>
</svg>
